<svg width="34" height="34" viewBox="0 0 34 34" fill="none" xmlns="http://www.w3.org/2000/svg">
<g clip-path="url(#clip0_611_192)">
<path d="M0.584488 12.8188H33.6237V20.0461H0.584488V12.8188Z" fill="#E6E7E8"/>
<path d="M28.4613 5.07523H5.74686C2.32576 5.07523 0.584488 7.6177 0.584488 10.7538V12.8188H33.6237V10.7538C33.6237 7.6177 31.8824 5.07523 28.4613 5.07523Z" fill="#FF9933"/>
<path d="M0.584488 22.1111C0.584488 25.2472 2.32576 27.7897 5.74686 27.7897H28.4613C31.8824 27.7897 33.6237 25.2472 33.6237 22.1111V20.0461H0.584488V22.1111Z" fill="#128807"/>
<path fill-rule="evenodd" clip-rule="evenodd" d="M17.2642 13.1198C17.9238 13.1198 18.5686 13.3154 19.117 13.682C19.6653 14.0485 20.0926 14.5695 20.3448 15.179C20.597 15.7885 20.6627 16.4591 20.5336 17.1059C20.4046 17.7528 20.0866 18.3468 19.6198 18.8129C19.153 19.2789 18.5585 19.596 17.9115 19.7241C17.2644 19.8521 16.5939 19.7854 15.9848 19.5322C15.3757 19.2791 14.8554 18.851 14.4897 18.3021C14.124 17.7531 13.9293 17.1081 13.9304 16.4485C13.9319 15.5652 14.2838 14.7186 14.9088 14.0946C15.5338 13.4705 16.381 13.1199 17.2642 13.1198ZM15.0418 14.5627C15.0991 14.6277 15.1095 14.6974 15.0712 14.7557C15.0551 14.7826 15.0301 14.803 15.0005 14.8135C14.9778 14.822 14.9535 14.8248 14.9294 14.8217C14.9054 14.8187 14.8825 14.8098 14.8627 14.796C14.773 14.9245 14.694 15.0602 14.6268 15.2018C14.7047 15.2529 14.7305 15.3169 14.7047 15.3876C14.6909 15.4236 14.6636 15.4528 14.6286 15.469C14.5936 15.4852 14.5537 15.4871 14.5173 15.4743C14.4802 15.5487 14.3981 15.8625 14.397 15.9286C14.4312 15.9352 14.462 15.9536 14.4838 15.9808C14.5068 16.0077 14.5186 16.0424 14.5168 16.0778C14.507 16.1749 14.4471 16.2162 14.3557 16.2198C14.3413 16.3132 14.3428 16.6261 14.3573 16.6875C14.4543 16.6978 14.5055 16.7401 14.5137 16.814C14.5251 16.8935 14.4869 16.9451 14.3939 16.9812C14.4218 17.1346 14.4616 17.2853 14.5137 17.4329C14.5501 17.4219 14.5891 17.4232 14.6247 17.4366C14.6593 17.4515 14.6867 17.4773 14.7011 17.513C14.714 17.5408 14.7166 17.5697 14.7099 17.6002C14.7051 17.6228 14.695 17.644 14.6806 17.6621C14.6662 17.6802 14.6478 17.6947 14.6268 17.7045C14.6959 17.848 14.7723 17.9832 14.8627 18.1102C14.9432 18.0705 15.0134 18.0798 15.0609 18.1366C15.0818 18.1599 15.0937 18.1899 15.0945 18.2212C15.0961 18.2444 15.092 18.2676 15.0827 18.2888C15.0733 18.31 15.0589 18.3286 15.0408 18.3431C15.144 18.4639 15.254 18.5743 15.3738 18.676C15.4414 18.6167 15.5116 18.6074 15.572 18.6497C15.5994 18.6688 15.6185 18.6941 15.6272 18.7251C15.6335 18.747 15.6348 18.7701 15.6311 18.7926C15.6273 18.8151 15.6186 18.8365 15.6056 18.8552C15.7362 18.945 15.8709 19.0224 16.0118 19.0895C16.0666 19.0126 16.129 18.9868 16.1966 19.0126C16.2261 19.0232 16.2517 19.0425 16.27 19.0679C16.2958 19.1092 16.2994 19.1546 16.2844 19.2031C16.4331 19.2558 16.5828 19.296 16.7377 19.3234C16.7681 19.2362 16.8208 19.1954 16.891 19.2005C16.9235 19.2031 16.9529 19.2129 16.9787 19.2351C17.0149 19.2682 17.0319 19.31 17.0288 19.3616C17.1878 19.373 17.3432 19.374 17.4976 19.3616C17.5089 19.262 17.5487 19.2119 17.6287 19.2005C17.6591 19.1963 17.69 19.2025 17.7165 19.2181C17.7358 19.229 17.7524 19.2442 17.7651 19.2624C17.7778 19.2806 17.7862 19.3015 17.7898 19.3234C17.9457 19.2945 18.0969 19.2547 18.243 19.2026C18.2301 19.105 18.2539 19.0467 18.3194 19.0162C18.3433 19.006 18.3694 19.0019 18.3953 19.0044C18.4221 19.0064 18.4464 19.0147 18.466 19.0322C18.4851 19.0482 18.5011 19.0679 18.5197 19.088C18.6604 19.0216 18.7955 18.9437 18.9234 18.8552C18.8708 18.7726 18.9017 18.6936 18.9446 18.6585C18.9595 18.6457 18.9769 18.636 18.9956 18.6299C19.0143 18.6239 19.0341 18.6217 19.0537 18.6233C19.0733 18.625 19.0924 18.6306 19.1098 18.6397C19.1272 18.6489 19.1427 18.6614 19.1552 18.6766C19.2745 18.5743 19.3865 18.4633 19.4866 18.3441C19.4283 18.2775 19.4169 18.2073 19.4598 18.1469C19.4771 18.1198 19.5037 18.1 19.5346 18.0911C19.5567 18.0842 19.58 18.0823 19.6028 18.0858C19.6256 18.0893 19.6474 18.098 19.6663 18.1113C19.7566 17.9812 19.8351 17.8464 19.9022 17.705C19.8268 17.6544 19.7995 17.595 19.8222 17.5274C19.8304 17.4973 19.8486 17.471 19.8738 17.4526C19.8939 17.4386 19.9169 17.4294 19.9411 17.4258C19.9653 17.4222 19.9899 17.4243 20.0132 17.4319C20.0467 17.3591 20.1304 17.0525 20.135 16.9781C20.0993 16.9716 20.0671 16.9526 20.0442 16.9244C20.0321 16.9105 20.0231 16.8942 20.0177 16.8766C20.0123 16.859 20.0106 16.8405 20.0127 16.8222C20.0146 16.7895 20.0282 16.7586 20.0509 16.735C20.0664 16.7186 20.0854 16.7059 20.1065 16.6979C20.1276 16.6899 20.1502 16.6867 20.1727 16.6885C20.1856 16.5324 20.1856 16.3754 20.1727 16.2193C20.0741 16.2095 20.0271 16.1713 20.0142 16.0933C20.0084 16.0638 20.0128 16.0332 20.0266 16.0066C20.0372 15.9859 20.0525 15.9681 20.0713 15.9544C20.09 15.9407 20.1116 15.9315 20.1345 15.9276C20.1074 15.7734 20.0671 15.6217 20.0142 15.4743C19.9187 15.4903 19.8599 15.4645 19.8284 15.3984C19.8202 15.3808 19.8156 15.3617 19.8149 15.3422C19.8142 15.3228 19.8174 15.3034 19.8243 15.2851C19.8311 15.2669 19.8416 15.2503 19.855 15.2361C19.8683 15.222 19.8844 15.2107 19.9022 15.2028C19.8353 15.0609 19.7564 14.9249 19.6663 14.7965C19.5832 14.8363 19.5155 14.827 19.468 14.7702C19.4469 14.7462 19.4352 14.7154 19.435 14.6835C19.434 14.6608 19.4384 14.6382 19.4477 14.6175C19.457 14.5968 19.4711 14.5785 19.4887 14.5642C19.3867 14.4449 19.2758 14.3336 19.1568 14.2312C19.0855 14.2921 19.0163 14.2999 18.9575 14.2576C18.9308 14.2397 18.9112 14.213 18.9022 14.1822C18.8958 14.1605 18.8944 14.1377 18.8982 14.1154C18.902 14.0931 18.9108 14.072 18.9239 14.0536C18.7952 13.9639 18.6594 13.885 18.5177 13.8177C18.4645 13.8941 18.4046 13.9194 18.337 13.8967C18.307 13.8871 18.2808 13.8683 18.2621 13.843C18.2485 13.8229 18.2398 13.7998 18.2368 13.7757C18.2337 13.7516 18.2364 13.7271 18.2446 13.7042C18.0973 13.6509 17.9456 13.6106 17.7913 13.5839C17.7619 13.6675 17.7087 13.7109 17.64 13.7067C17.6079 13.7057 17.5771 13.6941 17.5523 13.6737C17.5339 13.6582 17.5195 13.6384 17.5104 13.6161C17.5013 13.5938 17.4978 13.5696 17.5001 13.5457C17.3442 13.5324 17.1873 13.5326 17.0314 13.5462C17.0206 13.6391 16.9803 13.6923 16.9116 13.7036C16.8808 13.7102 16.8486 13.7062 16.8203 13.6923C16.7991 13.6818 16.7808 13.6665 16.7668 13.6476C16.7528 13.6286 16.7435 13.6066 16.7397 13.5834C16.5854 13.6114 16.4337 13.652 16.286 13.7047C16.3025 13.796 16.2767 13.8559 16.2137 13.8885C16.1863 13.9024 16.1574 13.9081 16.1254 13.9024C16.1014 13.8991 16.0786 13.8896 16.0593 13.8749C16.04 13.8601 16.0249 13.8406 16.0154 13.8182C15.9272 13.8513 15.6463 14.0139 15.6092 14.0547C15.6474 14.1311 15.6386 14.1987 15.5859 14.2472C15.5711 14.2604 15.5537 14.2704 15.5349 14.2767C15.516 14.283 15.4961 14.2854 15.4764 14.2839C15.4566 14.2824 15.4373 14.2769 15.4197 14.2677C15.402 14.2586 15.3864 14.246 15.3738 14.2307C15.2546 14.3325 15.1437 14.4435 15.0418 14.5627Z" fill="#010088"/>
<path fill-rule="evenodd" clip-rule="evenodd" d="M18.6941 18.9243C18.6879 18.9176 18.6817 18.9129 18.6771 18.9057C18.3769 18.4469 18.076 17.9887 17.7742 17.531C17.7675 17.5181 17.7597 17.5052 17.7535 17.4907C17.6833 17.3271 17.6146 17.1634 17.5429 17.0003C17.5405 16.9919 17.5372 16.9837 17.5331 16.976C17.5042 16.9869 17.4778 16.9993 17.4469 17.0111L17.4572 17.0375C17.5217 17.1959 17.5837 17.3549 17.6492 17.5134C17.6668 17.5558 17.674 17.6002 17.6833 17.6446C17.7339 17.8815 17.7814 18.1195 17.8325 18.357L18.007 19.2051C18.0078 19.2072 18.0082 19.2094 18.0079 19.2115C18.0076 19.2137 18.0068 19.2158 18.0054 19.2175L17.9982 19.1995C17.8568 18.7663 17.7117 18.3337 17.5697 17.9006C17.5413 17.8159 17.516 17.7323 17.4851 17.6476C17.4706 17.6053 17.466 17.562 17.4593 17.5181C17.4412 17.3952 17.4257 17.2713 17.4056 17.1484C17.403 17.119 17.3983 17.0901 17.3942 17.0617C17.393 17.0499 17.3911 17.0382 17.3885 17.0266C17.3576 17.0297 17.3292 17.0338 17.2982 17.0375C17.2982 17.0498 17.2992 17.0628 17.3003 17.0757C17.3183 17.2269 17.3338 17.3787 17.3555 17.5294C17.3668 17.612 17.3612 17.6931 17.3565 17.7757C17.3534 17.8454 17.3488 17.9151 17.3457 17.9853C17.3364 18.1267 17.3292 18.2677 17.3194 18.4086L17.3039 18.6997C17.2951 18.8649 17.2848 19.0296 17.276 19.1938C17.2719 19.2402 17.2708 19.2877 17.2662 19.3332L17.2538 19.1767L17.2378 18.8381L17.2192 18.5361C17.214 18.4328 17.2073 18.3301 17.2017 18.2269C17.197 18.1592 17.1944 18.0916 17.1903 18.025C17.1846 17.9182 17.1779 17.8113 17.1727 17.7055C17.1677 17.6491 17.1691 17.5922 17.1769 17.5361C17.1877 17.4597 17.196 17.3818 17.2053 17.3044C17.2156 17.2279 17.2244 17.151 17.2337 17.0757C17.2347 17.0638 17.2347 17.0514 17.2362 17.0375L17.1459 17.0256C17.1433 17.0462 17.1387 17.0664 17.1351 17.087C17.1136 17.2447 17.0916 17.4023 17.069 17.5599C17.0628 17.6213 17.0385 17.6781 17.0179 17.7354C16.8589 18.2196 16.6994 18.7044 16.5383 19.1881C16.5347 19.1969 16.5331 19.2051 16.5264 19.2134C16.5264 19.2072 16.5264 19.2026 16.529 19.1969C16.5956 18.8706 16.6627 18.5438 16.7319 18.2176C16.7763 18.0008 16.8222 17.7845 16.8661 17.5681L16.8785 17.5325C16.9451 17.3689 17.0091 17.2037 17.0772 17.04C17.0796 17.0304 17.0831 17.021 17.0876 17.0122C17.0591 17 17.0306 16.9881 17.0019 16.9765C16.9983 16.9858 16.9926 16.9936 16.9895 17.0029C16.9182 17.167 16.8485 17.3317 16.7773 17.4959C16.7729 17.5082 16.7673 17.5201 16.7608 17.5315C16.4562 17.9929 16.1525 18.455 15.8496 18.9176C15.8455 18.9246 15.84 18.9307 15.8336 18.9357C15.8362 18.9274 15.8409 18.9207 15.8439 18.9135L16.5904 17.4334C16.5969 17.42 16.6048 17.4073 16.6142 17.3957L16.9332 16.9678C16.9399 16.9605 16.9441 16.9538 16.9502 16.9461C16.9239 16.927 16.9028 16.9094 16.8764 16.8893C16.8707 16.896 16.8656 16.9017 16.8609 16.9084C16.7494 17.0483 16.6395 17.1892 16.5305 17.3286C16.5182 17.3415 16.5068 17.3549 16.4929 17.3668C16.0861 17.7308 15.6793 18.0926 15.2709 18.4571C15.2627 18.4638 15.2544 18.471 15.2441 18.4757C15.2487 18.471 15.2513 18.4654 15.2544 18.4618C15.5894 18.0875 15.9219 17.7137 16.2554 17.3395C16.2745 17.3188 16.2936 17.2982 16.3117 17.276C16.3499 17.2316 16.3927 17.1923 16.4392 17.1572L16.8098 16.8655C16.8181 16.8594 16.8243 16.8526 16.8336 16.8464C16.8153 16.8217 16.7963 16.7974 16.7768 16.7737C16.7685 16.7788 16.7618 16.784 16.7541 16.7897C16.6121 16.896 16.4696 17.0013 16.3277 17.1082C16.3118 17.1202 16.2948 17.1307 16.2771 17.1397C15.7923 17.3844 15.305 17.6291 14.8192 17.8738C14.8099 17.8779 14.8011 17.8831 14.7903 17.8831L14.8099 17.8691L15.7164 17.2754C15.8744 17.1717 16.0329 17.0679 16.1898 16.9636C16.2033 16.9559 16.2172 16.9492 16.2291 16.943C16.3937 16.8733 16.5579 16.8031 16.721 16.7329C16.7288 16.7298 16.7365 16.7267 16.7458 16.722L16.7112 16.6369C16.7014 16.6394 16.6952 16.642 16.6875 16.6446C16.5202 16.7112 16.3545 16.7788 16.1862 16.8449C16.1516 16.8578 16.1139 16.864 16.0773 16.8717L14.9493 17.1061C14.8073 17.1366 14.6628 17.1665 14.5203 17.1959C14.5146 17.1973 14.5085 17.1966 14.5033 17.1939C14.5425 17.1815 14.5817 17.1675 14.6205 17.1546C15.1078 16.9941 15.5946 16.8341 16.0804 16.6725C16.1186 16.6596 16.1594 16.656 16.1981 16.6498C16.355 16.6281 16.5114 16.6054 16.6668 16.5832C16.6764 16.5815 16.6858 16.5794 16.6952 16.577C16.6921 16.547 16.6875 16.5171 16.6849 16.4861L16.6095 16.4944L16.2977 16.5321C16.2394 16.5398 16.1816 16.546 16.1243 16.5532C16.1103 16.5548 16.0969 16.5553 16.0835 16.5548L15.7552 16.5357L15.5611 16.5248L15.2265 16.5052L14.7387 16.4784C14.621 16.4722 14.5064 16.4644 14.3892 16.4562C14.4078 16.4546 14.4284 16.4515 14.4486 16.4515L14.8486 16.4288L15.3773 16.3989L15.815 16.3741L16.0897 16.3576C16.1005 16.3571 16.1134 16.3586 16.1243 16.3596L16.4392 16.3973L16.6622 16.4242H16.6849C16.6875 16.3947 16.6921 16.3669 16.6952 16.3349C16.6761 16.3307 16.6544 16.3276 16.6353 16.324C16.4975 16.3049 16.3607 16.2848 16.2229 16.2646C16.1942 16.2614 16.1657 16.2576 16.1372 16.2533C16.1214 16.2512 16.1058 16.2475 16.0907 16.2425C15.6803 16.1077 15.2725 15.9719 14.8626 15.8372C14.7485 15.7998 14.6346 15.762 14.5208 15.7236C14.511 15.721 14.5017 15.7167 14.4935 15.7107L14.5652 15.7252L15.4413 15.9074C15.6757 15.9565 15.9136 16.005 16.148 16.0545C16.1621 16.0577 16.1759 16.062 16.1893 16.0674C16.3545 16.1325 16.5182 16.1996 16.6849 16.2657L16.7097 16.2755C16.721 16.2471 16.7334 16.2197 16.7458 16.1903C16.7374 16.1853 16.7286 16.181 16.7195 16.1774C16.5553 16.1082 16.3917 16.0375 16.228 15.9668C16.2152 15.9613 16.2028 15.955 16.1909 15.9477C15.7278 15.6446 15.2668 15.3401 14.8032 15.0365C14.7971 15.0331 14.7922 15.0279 14.7893 15.0215L14.8079 15.0319C15.2694 15.2642 15.7314 15.4965 16.194 15.7283C16.2704 15.7665 16.3447 15.8124 16.4128 15.8646C16.5254 15.9518 16.64 16.0354 16.7546 16.1211C16.7623 16.1268 16.769 16.132 16.7773 16.1371L16.8341 16.0654L16.814 16.0478L16.3943 15.718C16.3798 15.7066 16.3684 15.6947 16.3561 15.6823C15.9906 15.273 15.6245 14.8631 15.2601 14.4537C15.2548 14.4495 15.2507 14.444 15.2482 14.4377C15.2591 14.4387 15.2632 14.4459 15.2678 14.4506C15.4893 14.6468 15.7087 14.8429 15.9286 15.0391L16.4975 15.546C16.5078 15.5553 16.5176 15.5667 16.5269 15.577L16.8527 15.991C16.8609 16.0003 16.8671 16.0101 16.8764 16.0225L16.9513 15.9652C16.9466 15.958 16.9404 15.9523 16.9368 15.9456C16.8305 15.8036 16.7246 15.6612 16.6173 15.5197C16.6062 15.5031 16.596 15.4858 16.5868 15.4681C16.339 14.9802 16.0933 14.4903 15.847 14.002C15.8424 13.9927 15.8378 13.9855 15.8367 13.9757C15.8414 13.9808 15.846 13.9855 15.8491 13.9901L16.3767 14.7965L16.7499 15.3643C16.7629 15.386 16.7773 15.4087 16.7856 15.4325C16.8553 15.5915 16.9224 15.751 16.99 15.91C16.9946 15.9172 16.9977 15.925 17.0024 15.9343L17.0881 15.8986L17.0788 15.877C17.0143 15.7159 16.9513 15.5548 16.8857 15.3948C16.8676 15.354 16.8609 15.3117 16.8522 15.2693C16.7959 15.0004 16.7417 14.7309 16.6854 14.4614C16.6302 14.2023 16.5775 13.9452 16.5233 13.685C16.5223 13.6835 16.5233 13.6814 16.5254 13.6762L16.5708 13.8141C16.7329 14.3009 16.8935 14.7887 17.0525 15.2766C17.0659 15.3148 17.0705 15.3566 17.0762 15.3963C17.0953 15.5316 17.1144 15.6679 17.1361 15.8042C17.1397 15.83 17.1413 15.8558 17.1464 15.8842L17.2362 15.8728V15.8388C17.2233 15.7309 17.2094 15.6224 17.197 15.5151C17.1893 15.4521 17.1836 15.3907 17.1748 15.3292C17.1696 15.2879 17.1696 15.2461 17.1748 15.2048C17.1784 15.1346 17.1836 15.0649 17.1867 14.9952L17.212 14.5745C17.2166 14.4991 17.2182 14.4227 17.2228 14.3473C17.2295 14.2493 17.2347 14.1496 17.2404 14.051C17.245 13.9787 17.2486 13.906 17.2517 13.8342C17.2559 13.749 17.2626 13.6644 17.2698 13.5797C17.2719 13.6029 17.2729 13.6267 17.2739 13.6515C17.2812 13.7552 17.2863 13.859 17.2925 13.9633L17.3194 14.4361L17.3354 14.7015C17.3436 14.8548 17.3508 15.0086 17.3596 15.162C17.3622 15.1852 17.3632 15.2069 17.3648 15.2296C17.3715 15.2895 17.3596 15.3488 17.3545 15.4082L17.3214 15.6787C17.3163 15.7298 17.3085 15.7809 17.3023 15.8326C17.3013 15.8449 17.3013 15.8584 17.2977 15.8733C17.3297 15.878 17.3586 15.8811 17.3906 15.8852C17.3952 15.863 17.3973 15.8424 17.4009 15.8207C17.4257 15.6529 17.4494 15.4851 17.4732 15.3163C17.4753 15.3039 17.4804 15.291 17.4835 15.2781C17.6518 14.7732 17.817 14.2678 17.9843 13.7619C17.9925 13.7387 17.9987 13.7165 18.0116 13.6943C18.0102 13.7061 18.0083 13.7178 18.006 13.7294C17.9306 14.0949 17.8521 14.4594 17.7773 14.8238C17.7437 14.9947 17.7081 15.1661 17.6725 15.337C17.67 15.3511 17.6654 15.3649 17.659 15.3778L17.4598 15.8759C17.4562 15.8831 17.4536 15.8909 17.45 15.9002C17.4809 15.9121 17.5062 15.9239 17.5362 15.9358L17.548 15.911L17.7561 15.4221C17.7644 15.4056 17.7705 15.3896 17.7814 15.3762L18.6822 14.002C18.6879 13.9948 18.6925 13.9875 18.7013 13.9824C18.6977 13.9896 18.6951 13.9968 18.6905 14.004L17.9497 15.4753C17.9419 15.4893 17.9342 15.5032 17.9249 15.5156C17.8175 15.6586 17.7096 15.8016 17.6038 15.9435C17.5987 15.9517 17.593 15.9594 17.5868 15.9668L17.6601 16.0241C17.6659 16.0179 17.6712 16.0114 17.6761 16.0045C17.7855 15.8651 17.8944 15.7252 18.0054 15.5858C18.0177 15.5701 18.0313 15.5556 18.0462 15.5424C18.454 15.178 18.8624 14.814 19.2707 14.4506C19.2774 14.4449 19.2821 14.4392 19.2929 14.4361L19.2795 14.4527C19.1128 14.6411 18.946 14.8285 18.7767 15.0159C18.5754 15.2404 18.3766 15.4645 18.1768 15.689C18.1665 15.7004 18.1541 15.7102 18.1433 15.7195L17.7236 16.0494L17.7029 16.0659C17.7225 16.0907 17.7401 16.1144 17.7607 16.1392L17.7829 16.1227L18.213 15.8006C18.2239 15.7927 18.2353 15.7855 18.247 15.7789C18.7426 15.53 19.2351 15.2822 19.7276 15.0334C19.7359 15.0298 19.7426 15.0267 19.7514 15.0267C19.7286 15.0417 19.7075 15.0561 19.6848 15.0701C19.2392 15.3628 18.7937 15.6555 18.3467 15.9482C18.3343 15.9554 18.3229 15.9626 18.3095 15.9683C18.1448 16.0396 17.9786 16.1098 17.8155 16.1805L17.7891 16.1908C17.8031 16.2197 17.8129 16.2471 17.8253 16.276L17.849 16.2683C18.0147 16.2027 18.1794 16.134 18.3467 16.0705C18.388 16.054 18.4334 16.0468 18.4783 16.0375L19.2387 15.8795C19.4752 15.831 19.7095 15.7814 19.9465 15.7324C19.9682 15.7278 19.9883 15.7231 20.011 15.719C20.0167 15.719 20.0219 15.718 20.0301 15.7211L19.9578 15.7448C19.4535 15.9115 18.9507 16.0778 18.4463 16.2425C18.4081 16.2559 18.3658 16.2595 18.326 16.2657C18.213 16.2827 18.1015 16.2977 17.9915 16.3137C17.9512 16.3194 17.9115 16.3256 17.8712 16.3307L17.8418 16.3359C17.8449 16.3663 17.8495 16.3947 17.8516 16.4278L17.9295 16.4195L18.2083 16.3865C18.278 16.3777 18.3508 16.3679 18.4236 16.3612C18.4561 16.3586 18.4892 16.3617 18.5227 16.3632C18.5934 16.3663 18.6642 16.3725 18.738 16.3756L19.1551 16.4004C19.217 16.404 19.279 16.4066 19.343 16.4107L19.7684 16.435C19.8691 16.4412 19.9728 16.4458 20.073 16.452C20.0978 16.4535 20.1226 16.4557 20.1473 16.4588L20.0719 16.4649L19.7596 16.482L19.3729 16.5047L19.0813 16.5202C18.9471 16.5284 18.8103 16.5362 18.675 16.545C18.6007 16.5481 18.5243 16.5553 18.4494 16.5558C18.4066 16.5568 18.3616 16.5486 18.3198 16.5439C18.2281 16.5332 18.1364 16.5222 18.0447 16.5109L17.8686 16.4897H17.8516C17.8495 16.5197 17.8449 16.5491 17.8418 16.5806C18.0238 16.6075 18.2058 16.6339 18.388 16.6596C18.4417 16.6663 18.4886 16.6874 18.5392 16.7035L20.0074 17.1882C20.0169 17.1902 20.0259 17.1942 20.0337 17.2001C20.0213 17.198 20.0095 17.1959 19.9971 17.1949L18.722 16.929L18.3854 16.8588C18.3745 16.8557 18.3601 16.8516 18.3482 16.8459C18.1825 16.7804 18.0163 16.7133 17.8495 16.6467L17.8273 16.6389C17.8153 16.6672 17.8027 16.6952 17.7896 16.7231L17.817 16.736C17.9817 16.8062 18.1453 16.8759 18.309 16.9466C18.3219 16.9523 18.3348 16.959 18.3482 16.9683L19.7224 17.8686C19.7292 17.8738 19.7379 17.88 19.7436 17.8898C19.7369 17.8856 19.7292 17.8831 19.7235 17.8789L19.0075 17.5196C18.7576 17.3926 18.5057 17.2667 18.2532 17.1397C18.2371 17.1317 18.2221 17.1218 18.2083 17.1102C18.0664 17.0044 17.9228 16.8981 17.7809 16.7912C17.7746 16.7859 17.7678 16.781 17.7607 16.7768C17.7411 16.8005 17.7236 16.8237 17.7029 16.8485L17.7225 16.864C17.8609 16.9745 18.0018 17.085 18.1407 17.1949C18.1565 17.2062 18.1709 17.2194 18.1835 17.2341L19.2774 18.4581C19.2819 18.4643 19.2854 18.4711 19.2878 18.4783C19.2821 18.4721 19.2743 18.468 19.2687 18.4633C18.8583 18.0963 18.4473 17.7313 18.0359 17.3648C18.0266 17.3565 18.0182 17.3471 18.0111 17.3369L17.6766 16.9105C17.6719 16.9038 17.6663 16.8976 17.6606 16.8908C17.6368 16.9105 17.6136 16.928 17.5899 16.9487C17.5919 16.9549 17.5966 16.9616 17.6007 16.9678L17.9254 17.4004C17.9347 17.413 17.943 17.4263 17.9502 17.4401C18.1964 17.9285 18.4422 18.4179 18.6879 18.9068C18.6919 18.9134 18.6945 18.9208 18.6956 18.9284H18.6941V18.9243Z" fill="#010088"/>
<path fill-rule="evenodd" clip-rule="evenodd" d="M18.689 18.9243C18.6944 18.9297 18.6976 18.9356 18.7019 18.9405C18.6992 18.9415 18.6992 18.9431 18.696 18.9437C18.6949 18.9362 18.6911 18.9313 18.6901 18.9243H18.689Z" fill="#010088"/>
</g>
<defs>
<clipPath id="clip0_611_192">
<rect width="33.0392" height="33.0392" fill="white" transform="translate(0.584473 0.429077)"/>
</clipPath>
</defs>
</svg>
