<?xml version="1.0" standalone="no"?>
<!DOCTYPE svg PUBLIC "-//W3C//DTD SVG 20010904//EN"
 "http://www.w3.org/TR/2001/REC-SVG-20010904/DTD/svg10.dtd">
<svg version="1.0" xmlns="http://www.w3.org/2000/svg"
 width="672.000000pt" height="672.000000pt" viewBox="0 0 672.000000 672.000000"
 preserveAspectRatio="xMidYMid meet">
<metadata>
Created by potrace 1.14, written by Peter Selinger 2001-2017
</metadata>
<g transform="translate(0.000000,672.000000) scale(0.100000,-0.100000)"
fill="#000000" stroke="none">
<path d="M2780 5740 l0 -980 265 0 265 0 0 -522 c0 -288 -3 -682 -7 -875 l-6
-353 -1264 0 -1263 0 0 -953 0 -954 563 -551 562 -551 1250 -1 1250 0 583 583
582 582 0 1798 0 1797 195 0 195 0 0 980 0 980 -1585 0 -1585 0 0 -980z m2730
60 l0 -530 -190 0 -190 0 0 -1947 0 -1948 -457 -448 -456 -447 -1056 0 -1056
0 -448 441 -447 441 0 604 0 604 660 0 660 0 0 -387 0 -388 157 -157 158 -158
315 0 315 0 162 162 163 163 0 1732 0 1733 -260 0 -260 0 0 530 0 530 1115 0
1115 0 0 -530z"/>
</g>
</svg>
